<?xml version="1.0" standalone="no"?>
<!DOCTYPE svg PUBLIC "-//W3C//DTD SVG 20010904//EN"
 "http://www.w3.org/TR/2001/REC-SVG-20010904/DTD/svg10.dtd">
<svg version="1.0" xmlns="http://www.w3.org/2000/svg"
 width="626.000000pt" height="351.000000pt" viewBox="0 0 626.000000 351.000000"
 preserveAspectRatio="xMidYMid meet">

<g transform="translate(0.000000,351.000000) scale(0.100000,-0.100000)"
fill="#000000" stroke="none">
<path d="M148 2381 c-28 -10 -68 -38 -98 -67 l-50 -49 2 -545 3 -545 140 -27
c77 -16 212 -44 300 -64 165 -38 208 -41 335 -24 41 5 113 14 160 20 105 13
155 34 170 70 11 26 15 27 128 38 183 18 355 41 373 51 18 10 313 -43 366 -66
33 -14 58 -45 46 -56 -3 -4 6 -1 21 6 26 12 26 12 6 26 -11 7 -20 22 -20 32 0
25 -118 111 -142 103 -16 -5 -62 18 -83 42 -10 12 -204 -1 -583 -39 -154 -15
-189 -6 -145 38 14 14 14 18 2 26 -8 5 -19 9 -26 9 -13 0 -39 -23 -45 -40 -5
-15 -105 -31 -193 -30 -44 1 -111 -6 -150 -15 -59 -14 -86 -15 -175 -6 -58 5
-119 17 -135 25 -17 9 -36 16 -42 16 -7 0 -13 5 -13 10 0 6 27 10 62 10 89 0
62 16 -55 33 -54 8 -101 17 -104 21 -14 14 13 21 90 25 45 2 86 9 93 15 7 7
43 23 81 35 37 13 76 30 86 39 18 16 23 51 9 67 -5 6 -13 22 -20 38 -11 25 -9
30 38 77 28 28 50 54 50 60 0 10 -17 23 -102 78 -31 20 -70 48 -86 62 -15 14
-37 30 -48 36 -28 16 -25 58 4 62 13 2 21 9 19 15 -4 14 33 57 50 57 7 0 21 9
30 19 9 11 22 17 29 14 18 -7 18 11 0 45 -7 15 -17 50 -20 77 -6 44 -11 52
-39 65 -18 8 -40 13 -49 12 -24 -4 -71 22 -99 55 -32 38 -74 63 -101 62 -13 0
-44 -9 -70 -18z m74 -143 c50 -48 98 -123 98 -153 0 -14 8 -38 17 -52 16 -25
17 -26 1 -21 -10 4 -22 0 -29 -9 -17 -20 -130 -13 -177 11 -40 21 -82 85 -82
126 0 32 21 82 48 113 26 29 84 22 124 -15z m1558 -973 c17 -20 -9 -21 -36 0
-19 14 -19 14 2 15 12 0 27 -7 34 -15z"/>
<path d="M1831 2091 c-8 -5 -20 -7 -28 -4 -14 5 -40 -3 -131 -44 -40 -17 -56
-31 -64 -53 -8 -25 -13 -28 -24 -19 -11 9 -18 8 -32 -5 -10 -9 -24 -16 -30
-16 -20 0 -153 -137 -194 -201 -14 -22 -66 -157 -96 -249 -9 -28 1 -53 31 -82
10 -9 18 -19 18 -22 -4 -32 1 -36 42 -35 39 1 106 16 81 18 -17 1 -22 43 -13
103 11 66 71 191 110 225 16 15 47 58 68 97 22 39 48 78 58 86 55 43 176 100
212 100 49 0 81 19 81 50 0 46 -51 75 -89 51z"/>
<path d="M2474 2023 c3 -7 1 -13 -4 -13 -6 0 -10 5 -10 10 0 6 -12 10 -27 10
-21 0 -24 -3 -15 -12 7 -7 12 -20 12 -30 0 -11 19 -26 58 -44 31 -15 64 -28
72 -29 8 -1 47 -11 85 -22 74 -22 220 -59 294 -74 25 -5 54 -6 65 -2 12 4 30
6 40 4 15 -2 17 1 11 16 -4 10 -9 25 -12 33 -3 10 -36 25 -89 39 -46 13 -84
27 -84 32 0 5 -6 9 -14 9 -8 0 -21 6 -28 13 -20 20 -66 35 -148 47 -41 6 -91
14 -110 17 -74 12 -101 11 -96 -4z"/>
<path d="M2355 2020 c3 -5 8 -10 11 -10 2 0 4 5 4 10 0 6 -5 10 -11 10 -5 0
-7 -4 -4 -10z"/>
<path d="M3953 1443 c9 -2 25 -2 35 0 9 3 1 5 -18 5 -19 0 -27 -2 -17 -5z"/>
<path d="M3535 1431 c-3 -6 18 -7 52 -4 76 8 80 13 10 13 -31 0 -58 -4 -62 -9z"/>
<path d="M3868 1433 c12 -2 30 -2 40 0 9 3 -1 5 -23 4 -22 0 -30 -2 -17 -4z"/>
<path d="M3608 1413 c23 -2 59 -2 80 0 20 2 1 4 -43 4 -44 0 -61 -2 -37 -4z"/>
<path d="M3868 1413 c12 -2 30 -2 40 0 9 3 -1 5 -23 4 -22 0 -30 -2 -17 -4z"/>
<path d="M3478 1393 c6 -2 18 -2 25 0 6 3 1 5 -13 5 -14 0 -19 -2 -12 -5z"/>
<path d="M3521 1386 c2 -2 39 -6 83 -9 46 -3 73 -1 65 4 -13 8 -157 13 -148 5z"/>
<path d="M1186 1365 c-3 -8 -1 -15 4 -15 6 0 10 7 10 15 0 8 -2 15 -4 15 -2 0
-6 -7 -10 -15z"/>
<path d="M2643 1359 c-24 -12 -43 -25 -43 -30 0 -5 -6 -9 -13 -9 -8 0 -22 -10
-33 -22 -10 -12 -13 -18 -6 -14 6 4 12 2 12 -4 0 -8 51 -11 183 -9 163 2 310
-3 464 -16 29 -3 55 0 58 5 3 6 -4 10 -17 10 -13 0 -29 5 -35 11 -13 13 -117
38 -163 39 -19 0 -57 7 -85 16 -49 15 -220 44 -260 44 -11 0 -39 -9 -62 -21z"/>
<path d="M2003 1324 c5 -30 -15 -43 -38 -24 -8 7 -15 10 -15 7 0 -3 18 -19 41
-35 36 -27 43 -29 72 -18 18 6 38 17 45 24 7 6 18 12 23 12 5 0 9 6 9 14 0 19
-61 46 -105 46 -35 0 -37 -2 -32 -26z"/>
<path d="M4085 1291 c-3 -5 -2 -12 3 -15 5 -3 9 1 9 9 0 17 -3 19 -12 6z"/>
<path d="M3407 1260 c6 -8 13 -28 16 -45 l4 -30 2 31 c0 20 -6 37 -16 45 -16
12 -16 12 -6 -1z"/>
<path d="M3653 1262 c-54 -2 -73 -7 -77 -19 -4 -9 -4 -18 -1 -21 3 -3 5 0 5 6
0 7 5 12 10 12 6 0 10 -8 10 -19 0 -14 10 -20 38 -25 54 -9 213 -6 237 4 11 5
14 9 7 9 -7 1 -10 6 -7 11 3 6 -1 10 -9 10 -16 0 -18 20 -2 31 8 7 -70 7 -211
1z"/>
<path d="M4080 1145 c-2 -56 -4 -73 -10 -55 -5 16 -8 -8 -9 -73 -1 -96 -1 -98
-28 -109 -30 -13 -296 -22 -370 -12 -62 8 -128 75 -138 141 l-8 48 -13 -30
c-7 -16 -11 -43 -9 -60 5 -28 4 -28 -5 -6 -7 16 -6 36 4 70 9 30 11 60 6 86
l-8 40 -1 -48 c0 -27 -6 -69 -13 -95 -12 -47 -12 -47 -20 -17 -4 19 -6 1 -4
-47 2 -47 -1 -75 -6 -71 -6 3 -8 -3 -6 -13 4 -23 70 -61 120 -69 36 -6 50 -19
28 -27 -8 -3 3 -181 15 -235 5 -20 0 -22 -62 -29 -127 -13 -388 37 -515 99
-41 20 -62 26 -53 17 23 -26 162 -87 235 -105 36 -9 88 -22 115 -30 28 -8 87
-19 133 -26 74 -10 82 -13 77 -30 -4 -11 -2 -19 4 -19 6 0 11 7 11 15 0 8 4
15 10 15 5 0 7 -7 4 -15 -4 -8 -1 -15 5 -15 6 0 11 7 11 15 0 8 5 15 11 15 6
0 9 -7 5 -15 -4 -11 2 -15 24 -15 22 0 30 5 31 18 0 14 2 14 8 -3 8 -18 17
-20 88 -19 44 0 85 4 91 8 7 4 12 2 12 -5 0 -8 3 -9 13 0 8 6 17 8 20 4 4 -3
13 0 22 7 10 8 15 9 15 1 0 -18 18 -13 23 7 4 16 5 16 6 0 0 -10 5 -18 10 -18
5 0 12 8 16 18 7 16 8 15 15 -3 8 -19 8 -19 18 5 8 18 11 20 11 8 1 -13 9 -18
30 -18 24 0 28 3 24 20 -3 11 0 20 6 20 6 0 11 -8 12 -17 0 -16 1 -15 8 2 8
19 8 19 20 0 10 -16 11 -16 7 -3 -3 10 -1 18 4 18 6 0 10 -7 10 -15 0 -8 5
-15 10 -15 6 0 10 6 8 13 -2 7 2 13 7 14 6 0 9 -3 7 -8 -1 -5 2 -9 8 -9 6 0
10 7 10 15 0 8 4 15 10 15 5 0 7 -7 3 -16 -4 -12 0 -15 18 -12 16 2 23 9 21
21 -2 9 2 17 8 17 5 0 10 -7 10 -16 0 -8 5 -12 10 -9 6 4 8 10 5 15 -3 5 -1
11 5 15 5 3 10 -1 10 -9 0 -9 4 -16 10 -16 5 0 7 7 4 15 -4 9 3 16 22 21 25 6
26 8 9 15 -19 6 -18 8 5 18 20 9 12 11 -45 6 -38 -3 -109 -8 -157 -12 l-88 -6
0 66 c0 36 -5 69 -10 72 -12 8 -2 114 14 134 8 10 6 12 -9 9 -16 -3 -20 -12
-22 -48 -1 -25 -2 -49 -3 -55 -1 -5 -2 -47 -1 -92 2 -75 0 -83 -17 -83 -16 0
-20 10 -25 52 -4 28 -4 85 0 126 4 55 3 76 -7 82 -8 5 8 14 46 25 76 21 104
40 104 68 0 17 -2 19 -10 7 -10 -17 -14 -10 -24 47 -5 30 8 56 16 32 2 -6 2
35 0 92 -6 132 -20 174 -22 64z m147 -657 c-3 -8 -6 -5 -6 6 -1 11 2 17 5 13
3 -3 4 -12 1 -19z m-167 -18 c0 -5 -4 -10 -10 -10 -5 0 -10 5 -10 10 0 6 5 10
10 10 6 0 10 -4 10 -10z"/>
<path d="M1548 1195 c-3 -4 -44 -6 -90 -6 -110 1 -137 -5 -135 -30 1 -10 7
-19 14 -19 7 0 13 -4 13 -10 0 -5 -9 -10 -20 -10 -11 0 -20 7 -20 15 0 8 -17
19 -41 25 -34 9 -45 8 -66 -5 -22 -15 -23 -18 -10 -33 8 -9 22 -31 31 -49 9
-18 38 -59 66 -92 27 -33 50 -64 50 -69 0 -11 25 -16 185 -37 66 -8 134 -18
151 -21 28 -5 33 -3 42 24 11 33 47 59 57 42 3 -5 -1 -22 -9 -38 l-15 -29 54
-7 c29 -3 60 -9 68 -12 19 -7 40 28 31 51 -4 9 -17 21 -30 25 -17 7 -22 14
-17 26 4 12 3 15 -6 10 -7 -5 -28 -5 -47 -2 -25 5 -35 13 -40 31 -6 25 -34 36
-34 14 0 -19 -33 -38 -67 -39 -38 0 -103 36 -103 57 0 13 9 15 57 9 32 -4 62
-11 67 -16 6 -6 17 -10 25 -10 28 0 -10 25 -74 50 -93 35 -171 92 -158 113 3
5 17 7 32 4 14 -3 79 -1 143 5 115 10 117 10 175 -16 32 -15 75 -44 97 -64
l38 -37 -26 48 c-31 57 -31 54 -8 60 12 3 11 5 -6 6 -13 0 -33 6 -45 13 -12 7
-62 13 -112 13 -49 1 -117 5 -150 9 -33 4 -63 5 -67 1z m292 -315 c9 -6 10
-10 3 -10 -6 0 -19 -3 -27 -6 -12 -5 -15 -2 -10 10 7 18 13 20 34 6z"/>
<path d="M1964 1135 c26 -19 42 -19 26 0 -7 8 -20 15 -29 15 -13 -1 -13 -3 3
-15z"/>
<path d="M4120 1095 c0 -18 5 -32 13 -32 54 -1 246 -15 262 -19 16 -4 17 -3 5
5 -8 6 -26 11 -39 11 -14 0 -32 6 -40 14 -9 7 -58 23 -108 34 l-93 20 0 -33z"/>
<path d="M0 1043 c0 -65 1 -69 31 -85 22 -13 53 -18 110 -18 54 0 146 -13 277
-40 108 -22 242 -47 297 -55 55 -9 181 -32 281 -50 310 -59 602 -105 733 -115
69 -5 259 -21 421 -34 397 -34 623 -50 695 -51 48 0 75 -8 135 -37 88 -42 120
-53 120 -40 0 5 -6 9 -13 9 -50 0 -230 115 -243 155 -3 11 -9 17 -13 12 -10
-14 -40 -16 -90 -5 -25 6 -80 13 -121 15 -41 3 -176 15 -300 26 -124 12 -295
27 -380 35 -513 46 -797 94 -1546 260 -209 47 -384 85 -387 85 -4 0 -7 -30 -7
-67z m2158 -364 c78 -6 140 -14 138 -17 -7 -7 -304 19 -335 29 -21 7 -18 8 14
4 22 -2 104 -10 183 -16z m240 -26 c-16 -2 -40 -2 -55 0 -16 2 -3 4 27 4 30 0
43 -2 28 -4z m95 -10 c-7 -2 -19 -2 -25 0 -7 3 -2 5 12 5 14 0 19 -2 13 -5z"/>
<path d="M708 1023 c7 -3 16 -2 19 1 4 3 -2 6 -13 5 -11 0 -14 -3 -6 -6z"/>
<path d="M4463 1003 c9 -2 23 -2 30 0 6 3 -1 5 -18 5 -16 0 -22 -2 -12 -5z"/>
<path d="M1937 980 c-26 -16 -27 -18 -8 -23 11 -3 25 1 32 9 19 23 5 32 -24
14z"/>
<path d="M4623 993 c15 -2 39 -2 55 0 15 2 2 4 -28 4 -30 0 -43 -2 -27 -4z"/>
<path d="M4753 983 c9 -2 25 -2 35 0 9 3 1 5 -18 5 -19 0 -27 -2 -17 -5z"/>
<path d="M2785 968 c-356 -31 -405 -37 -431 -52 l-29 -16 45 5 c25 3 159 6
298 8 216 2 254 0 262 -13 5 -8 7 -21 4 -29 -4 -11 0 -11 14 2 10 9 25 17 33
17 7 0 45 15 84 33 38 19 80 38 93 43 15 6 -20 8 -100 6 -67 -2 -131 -8 -142
-14 -16 -9 -18 -7 -13 6 4 10 1 15 -6 15 -7 -1 -57 -6 -112 -11z"/>
<path d="M4848 973 c6 -2 18 -2 25 0 6 3 1 5 -13 5 -14 0 -19 -2 -12 -5z"/>
<path d="M4933 963 c9 -2 23 -2 30 0 6 3 -1 5 -18 5 -16 0 -22 -2 -12 -5z"/>
<path d="M5530 960 c79 -5 85 -7 35 -8 -33 -1 -116 -9 -185 -16 -68 -8 -128
-12 -132 -10 -4 2 -11 -3 -16 -11 -9 -16 -38 -23 -104 -24 -27 -1 -38 -5 -38
-16 0 -8 -5 -15 -12 -15 -6 0 -3 -9 7 -20 21 -23 70 -26 156 -10 37 7 55 7 57
0 2 -5 12 -10 22 -10 10 0 20 -7 24 -15 4 -11 20 -15 55 -15 60 0 89 -9 69
-21 -8 -6 -2 -7 17 -4 17 3 64 1 105 -4 l75 -10 -85 4 c-60 2 -73 1 -45 -5 22
-4 115 -6 207 -4 92 2 174 4 183 4 9 0 14 4 10 9 -5 10 27 18 90 23 18 2 29 8
27 16 -1 7 8 12 23 12 14 0 25 4 25 9 0 5 13 12 30 16 16 4 33 12 37 19 5 7
15 15 23 18 22 8 -57 27 -131 33 -142 10 -205 18 -219 25 -31 16 -232 39 -325
38 l-80 -2 95 -6z"/>
<path d="M4568 943 c12 -2 32 -2 45 0 12 2 2 4 -23 4 -25 0 -35 -2 -22 -4z"/>
<path d="M4750 924 c52 -7 115 -12 140 -12 25 0 -4 6 -65 14 -60 7 -123 12
-140 12 -16 0 13 -6 65 -14z"/>
<path d="M0 850 l0 -62 63 6 c34 3 95 8 135 12 39 3 72 10 72 15 0 5 -7 9 -16
9 -9 0 -28 8 -42 19 -15 10 -43 22 -62 26 -19 4 -39 11 -45 15 -5 5 -31 11
-57 15 l-48 7 0 -62z"/>
<path d="M4668 903 c7 -3 16 -2 19 1 4 3 -2 6 -13 5 -11 0 -14 -3 -6 -6z"/>
<path d="M4704 903 c8 -8 175 -32 224 -33 27 0 41 4 40 12 -2 6 7 14 20 17 12
3 -48 7 -133 7 -86 1 -154 -1 -151 -3z"/>
<path d="M1985 889 c-4 -6 -4 -13 -1 -16 3 -3 63 -8 133 -9 96 -3 130 -1 142
10 9 7 23 16 31 19 8 3 -56 6 -142 6 -101 1 -159 -3 -163 -10z"/>
<path d="M1928 813 c6 -2 18 -2 25 0 6 3 1 5 -13 5 -14 0 -19 -2 -12 -5z"/>
<path d="M5328 773 c7 -3 16 -2 19 1 4 3 -2 6 -13 5 -11 0 -14 -3 -6 -6z"/>
<path d="M4702 662 l-23 -37 26 28 c14 15 25 32 25 38 0 14 -3 11 -28 -29z"/>
<path d="M4530 654 c-41 -18 -70 -34 -63 -34 6 0 20 -3 30 -6 15 -5 16 -4 3 6
-13 10 -12 11 3 6 17 -6 45 8 96 46 34 25 17 21 -69 -18z"/>
<path d="M1717 611 c-34 -51 -34 -66 1 -96 22 -21 25 -26 12 -34 -11 -8 -9
-12 13 -20 57 -22 127 -4 83 21 -14 8 -14 12 -2 36 7 15 11 33 9 40 -3 7 6 12
24 13 21 1 16 3 -17 10 -63 12 -75 18 -64 29 6 6 30 4 64 -5 30 -8 73 -14 95
-14 32 1 25 4 -34 15 -41 7 -77 18 -81 24 -4 6 -22 13 -41 16 -32 6 -37 3 -62
-35z m43 -5 c0 -3 -4 -8 -10 -11 -5 -3 -10 -1 -10 4 0 6 5 11 10 11 6 0 10 -2
10 -4z"/>
<path d="M3227 642 c-9 -2 -15 -8 -12 -13 4 -5 -2 -9 -11 -9 -10 0 -15 -3 -12
-6 4 -3 22 -1 42 4 21 6 34 7 31 1 -4 -5 -14 -9 -23 -10 -10 -1 -7 -4 8 -8 32
-10 39 -6 33 18 -5 20 -27 29 -56 23z"/>
<path d="M4550 620 c-19 -11 -31 -19 -27 -20 11 0 67 29 67 35 0 7 -1 7 -40
-15z"/>
<path d="M4645 619 c-4 -6 -5 -12 -2 -15 2 -3 7 2 10 11 7 17 1 20 -8 4z"/>
<path d="M4081 593 c-1 -33 11 -43 25 -21 4 6 3 8 -4 4 -6 -4 -12 5 -15 21 -4
26 -4 26 -6 -4z"/>
<path d="M4540 570 c-9 -6 -10 -10 -3 -10 6 0 15 5 18 10 8 12 4 12 -15 0z"/>
<path d="M4490 551 c-8 -6 -18 -7 -22 -5 -4 3 -8 0 -8 -6 0 -7 -7 -10 -15 -6
-9 3 -15 0 -15 -10 0 -12 8 -10 43 7 23 12 44 23 46 25 9 8 -15 3 -29 -5z"/>
<path d="M4381 514 c0 -11 3 -14 6 -6 3 7 2 16 -1 19 -3 4 -6 -2 -5 -13z"/>
<path d="M3131 505 c4 -3 19 -8 35 -11 16 -3 26 -2 23 1 -4 3 -19 8 -35 11
-16 3 -26 2 -23 -1z"/>
<path d="M4320 498 c0 -4 7 -8 15 -8 8 0 15 4 15 8 0 5 -7 9 -15 9 -8 0 -15
-4 -15 -9z"/>
<path d="M3205 490 c-4 -6 3 -10 14 -10 25 0 27 6 6 13 -8 4 -17 2 -20 -3z"/>
<path d="M3278 473 c6 -2 18 -2 25 0 6 3 1 5 -13 5 -14 0 -19 -2 -12 -5z"/>
<path d="M4431 464 c0 -11 3 -14 6 -6 3 7 2 16 -1 19 -3 4 -6 -2 -5 -13z"/>
<path d="M3397 458 c2 -5 15 -8 29 -8 13 0 24 3 24 8 0 4 -13 7 -29 7 -16 0
-27 -3 -24 -7z"/>
<path d="M3466 462 c-8 -14 37 -23 49 -10 7 8 5 9 -6 5 -9 -3 -21 -1 -27 5 -6
6 -12 6 -16 0z"/>
<path d="M4411 454 c0 -11 3 -14 6 -6 3 7 2 16 -1 19 -3 4 -6 -2 -5 -13z"/>
</g>
</svg>
